<?xml version="1.0" standalone="no"?>
<!DOCTYPE svg PUBLIC "-//W3C//DTD SVG 20010904//EN"
 "http://www.w3.org/TR/2001/REC-SVG-20010904/DTD/svg10.dtd">
<svg version="1.0" xmlns="http://www.w3.org/2000/svg"
 width="25.000000pt" height="26.000000pt" viewBox="0 0 25.000000 26.000000"
 preserveAspectRatio="xMidYMid meet">
<metadata>
Created by potrace 1.16, written by Peter Selinger 2001-2019
</metadata>
<g transform="translate(0.000000,26.000000) scale(0.100000,-0.100000)"
fill="#000000" stroke="none">
<path d="M54 245 c-91 -47 -60 -195 41 -195 20 0 46 5 57 11 11 6 18 7 15 2
-10 -15 49 -67 67 -60 25 10 19 43 -12 69 -24 20 -27 28 -19 45 14 31 0 86
-27 112 -31 29 -83 36 -122 16z m101 -40 c43 -42 24 -106 -38 -128 -41 -15
-105 48 -90 90 22 62 85 82 128 38z"/>
</g>
</svg>
